<?xml version="1.0" encoding="utf-8"?>
<!-- Generator: Adobe Illustrator 16.0.0, SVG Export Plug-In . SVG Version: 6.00 Build 0)  -->
<!DOCTYPE svg PUBLIC "-//W3C//DTD SVG 1.1//EN" "http://www.w3.org/Graphics/SVG/1.1/DTD/svg11.dtd">
<svg version="1.1" id="Layer_1" xmlns="http://www.w3.org/2000/svg" xmlns:xlink="http://www.w3.org/1999/xlink" x="0px" y="0px"
	 width="360px" height="240.481px" viewBox="0 0 360 240.481" enable-background="new 0 0 360 240.481" xml:space="preserve">
<g>
	<path fill="#1D184B" d="M320,12.604c0,39.932-11.915,52.386-47.999,52.386c0.013-19.901,37.996-11.528,37.996-35.528H306
		c0,15-26.043,11.58-38,23.537C268,25,295.906,36.698,320,12.604 M332,116.604c0,0,16,4.886,16,19.998c0,15.205-40,15.996-40,15.996
		s16,5.529,16,23.99c0,11.795-21.211,17.172-36.54,19.521c0.532-6.336,0.54-13.487,0.54-20.108c-28,28-64,12.83-64,52.731
		c19.958-19.959,48-16.269,48-31.269h4c0,24-48,23-48,43h-36c0-72,118-67,118-127h-4c0,51-130,47-130,127h-40h-16v-12h7.835
		c24.102,0,24.165-7.964,24.165-33.963l8-2.981c2.136-0.713,2.769-2.876,2-4.991l-6-17.994c0-27.75-12.125-55.999-48-55.999
		c-30.754,0-48,20.086-48,48.002V168c23,0,12.083,14.731,32,14.731c16.083,0,26-9.269,26-21.269h4c0,27-18,59.269-58,59.269
		c-20,0-8-24.366-36-24.366c0-11.912,15.917-28.244,23.75-28.244c0,0-5.524-11.526-7.75-21.526c-1.857-8.343-4-19.115-4-29.961
		C40,85.015,57.333,64.62,84,64.62c11.333,0,20,8.147,20,23.993c0,3.857-2,7.625-2,7.625c10-5.916,25.917-23.775,20.019-47.775H126
		c0,0,7.917,26.121-14,48.037c20.083-8,45.927-23.02,62-52.981l4,1.009c-21.795,42.883-66,60.005-66,60.005s39.262-4.588,62-29.998
		l4,4.001c-15.501,15.994-33.41,25.352-50,30.001c16.314,5.429,26.935,17.57,32,32c10.843-0.07,19.794-1.166,28-4
		c-3.363-5.785-3.209-12.054-2.299-16.739c1.439-0.418,2.854-0.862,4.244-1.328c-0.651,3.916-0.295,9.353,4.055,15.066
		c7.307-3.105,13.332-6.742,19-11c-1.52-3.148-2.633-8.625-2.92-13.3c2.059-1.236,4.027-2.531,5.934-3.867
		c0.094,3.875,0.621,8.992,2.986,12.166c17.61-14.705,31-31,57-31v4c-18,0-29.994,8.842-42,20c14.021,14.022,36-4,36-4l3,3
		c0,0-23,25-43,5c-8.732,8.264-19.279,17.231-32,24c18.684,16.521,32,4,32,4l2,2c0,0-16,20-39-3c-8.951,3.987-19.154,6.629-31,7
		c0.785,3.955,2,7.911,2,12c14.184-14.184,28.21,0,44,0c36.025,0,24-28,52-28c19.171,0,28-13.795,28-35.933
		c0-4.488-0.995-8.363-2.951-11.634c2.024-6.01,6.208-12.366,14.951-12.366c13.334,0,12,24,12,24s15-28,24-28c9.25,0,24,16,24,24
		C360,107.544,332,116.604,332,116.604 M86.351,84.5l-2.306-3.268C64,93.354,47.902,112.537,53,148.537c0-7.91,5-16,5-16
		S61.818,96.626,86.351,84.5"/>
	<path fill="#039388" d="M288,176c0,32,0,64.481-60,64.481c0-20,48-19.019,48-43.019h-4c0,15-28,11.269-48,31.269
		C224,188.828,260,204,288,176 M104,88.604c0,3.932-2,7.627-2,7.627c10.005-5.95,25.899-23.769,20.019-47.769H126
		c0,0,7.917,26.121-14,48.037c20.083-8,45.927-23.021,62-52.982l4,1.01c-21.795,42.882-66,60.004-66,60.004s39.262-4.587,62-29.997
		l4,4.001c-15.492,15.984-33.418,25.35-50,30l9,4.001c35,0,63-28.112,63-59.932c0-15.713-8-24-24-24c-15.466,0-32,20-32,20
		s-3.2-12-20-12c-16.045,0-28,31.932-28,31.932S104,73.796,104,88.604 M194,133.537c7.307-3.106,13.332-6.742,19-11
		c-1.52-3.151-2.633-8.629-2.917-13.306c-6.032,3.619-12.731,6.768-20.14,9.254C189.295,122.4,189.654,127.83,194,133.537
		 M252,72.604c-2.297,0-4.439,0.135-6.456,0.371c-6.448,11.274-16.108,22.973-29.528,32.385c0.092,3.873,0.612,8.992,2.984,12.176
		c17.61-14.705,31-31,57-31v4c-18,0-29.994,8.842-42,20c14.021,14.021,36-4,36-4l3,3c0,0-23,25-43,5c-8.705,8.239-32,24-32,24
		c18,18,32,4,32,4s2.006,1.994,2,2c-0.029,0.037-16.032,19.969-39-3c-8.951,3.988-19.154,6.629-31,7c0.785,3.955,2,7.912,2,12
		c13.949-13.949,28.062,0,44,0c36.062,0,24.062-28,52-28c19.171,0,28-13.795,28-35.933C288,92.342,288.586,72.604,252,72.604
		 M185.742,119.781c-10.273,2.992-21.8,4.756-34.742,4.756c0,0,6.857,9.896,9,16c10.843-0.07,19.794-1.166,28-4
		C184.611,130.707,184.811,124.467,185.742,119.781"/>
	<path fill="#F0566D" d="M128,152c0,4.455-1.984,8-6,8c0,0,0-8-7-15l-2,2c5.047,5.047,5,13,5,13c-4.732,0-4-8-10-8
		c-8.375,0-12-3.625-12-8c0-8.625,5.389-12,12-12C118.778,132,128,141.555,128,152 M220,12c-4.418,0-8,3.582-8,8s3.582,8,8,8
		s8-3.582,8-8S224.418,12,220,12 M246,20c-4.418,0-8,3.582-8,8s3.582,8,8,8s8-3.582,8-8S250.418,20,246,20 M336,32
		c-4.418,0-8,3.582-8,8s3.582,8,8,8s8-3.582,8-8S340.418,32,336,32 M240,0c-4.418,0-8,3.582-8,8s3.582,8,8,8s8-3.582,8-8
		S244.418,0,240,0 M280,4c-4.418,0-8,3.582-8,8s3.582,8,8,8s8-3.582,8-8S284.418,4,280,4 M352,0c-4.418,0-8,3.582-8,8s3.582,8,8,8
		s8-3.582,8-8S356.418,0,352,0 M51.75,168c0,0-5.523-12.088-7.75-22.069c-3.261,6.655-4,14.062-4,14.062s-17.053-14.957-24-8.01
		c-6.947,6.946,8,23.983,8,23.983S0,188,0,192l28.582-0.069C31.486,180.72,44.78,168,51.75,168"/>
	<path fill="#FCB21D" d="M40,142.605c0,3.313-2.686,6-6,6c-3.314,0-6-2.687-6-6c0-3.314,2.686-6,6-6
		C37.314,136.605,40,139.291,40,142.605 M10,140.605c-3.314,0-6,2.686-6,6c0,3.313,2.686,6,6,6c3.314,0,6-2.687,6-6
		C16,143.291,13.314,140.605,10,140.605 M8,166.605c-3.314,0-6,2.686-6,6c0,3.313,2.686,6,6,6c3.314,0,6-2.687,6-6
		C14,169.291,11.314,166.605,8,166.605 M136.524,112.533l14.226,12.004c77,0,105.125-61.375,105.125-83.933
		c-14.057,0-15.938,12-15.938,12s0.254-20-11.969-20c-8.444,0-12.484,12.024-12.484,12.024S215,24.604,199,24.604v28
		C199,84.662,171.298,112.533,136.524,112.533"/>
</g>
</svg>
