<?xml version="1.0" encoding="utf-8"?>
<!-- Generator: Adobe Illustrator 16.0.0, SVG Export Plug-In . SVG Version: 6.00 Build 0)  -->
<!DOCTYPE svg PUBLIC "-//W3C//DTD SVG 1.1//EN" "http://www.w3.org/Graphics/SVG/1.1/DTD/svg11.dtd">
<svg version="1.1" id="Layer_1" xmlns:sketch="http://www.bohemiancoding.com/sketch/ns"
	 xmlns="http://www.w3.org/2000/svg" xmlns:xlink="http://www.w3.org/1999/xlink" x="0px" y="0px" width="60px" height="60px"
	 viewBox="0 0 60 60" enable-background="new 0 0 60 60" xml:space="preserve">
<title></title>
<desc></desc>
<g id="slices" transform="translate(173.000000, 138.000000)">
</g>
<path fill="#FFFFFF" d="M57.004,0H2.996C1.337,0,0,1.341,0,2.996v54.008C0,58.662,1.341,60,2.996,60h54.008
	C58.662,60,60,58.658,60,57.004V2.996C60,1.337,58.658,0,57.004,0z M47.309,18.461L30,33.461l-17.307-15H47.309z M11.539,19.615
	l12.692,10.961L11.539,41.539V19.615z M12.693,42.693l12.632-10.893L30,35.639l4.602-3.838l12.707,10.893H12.693z M48.461,41.539
	L35.77,30.576l12.691-10.961V41.539z"/>
</svg>
