<?xml version="1.0" encoding="utf-8"?>
<!-- Generator: Adobe Illustrator 16.0.0, SVG Export Plug-In . SVG Version: 6.00 Build 0)  -->
<!DOCTYPE svg PUBLIC "-//W3C//DTD SVG 1.1//EN" "http://www.w3.org/Graphics/SVG/1.1/DTD/svg11.dtd">
<svg version="1.1" id="Layer_1" xmlns="http://www.w3.org/2000/svg" xmlns:xlink="http://www.w3.org/1999/xlink" x="0px" y="0px"
	 width="460.632px" height="460.385px" viewBox="0 0 460.632 460.385" enable-background="new 0 0 460.632 460.385"
	 xml:space="preserve">
<g id="D9Jn3M_1_" opacity="0.95">
	<g>
		<path fill-rule="evenodd" clip-rule="evenodd" fill="#3D3447" d="M230.065,0C356.91-0.193,460.187,102.572,460.631,229.424
			c0.447,127.541-103.082,231.023-231.064,230.961C103.128,460.324-0.214,356.582,0,229.932C0.215,103.03,103.11,0.195,230.065,0z
			 M372.022,230.168c0.225-6.04-3.261-9.882-8.145-13.125c-62.407-41.439-124.788-82.921-187.123-124.472
			c-5.251-3.499-10.507-5.079-16.35-2.031c-6.038,3.149-7.737,8.475-7.72,15.021c0.116,45.143,0.058,90.287,0.06,135.431
			c0.002,38.48,0.044,76.96-0.015,115.44c-0.01,6.568,2.794,11.188,8.68,13.875c5.444,2.485,10.269,0.837,14.998-2.318
			c36.144-24.115,72.339-48.156,108.519-72.218c26.338-17.516,52.664-35.049,79.028-52.524
			C368.644,240.138,372.125,236.41,372.022,230.168z"/>
	</g>
</g>
</svg>
