<?xml version="1.0" encoding="utf-8"?>
<!-- Generator: Adobe Illustrator 16.0.0, SVG Export Plug-In . SVG Version: 6.00 Build 0)  -->
<!DOCTYPE svg PUBLIC "-//W3C//DTD SVG 1.1//EN" "http://www.w3.org/Graphics/SVG/1.1/DTD/svg11.dtd">
<svg version="1.1" id="Layer_1" xmlns:sketch="http://www.bohemiancoding.com/sketch/ns"
	 xmlns="http://www.w3.org/2000/svg" xmlns:xlink="http://www.w3.org/1999/xlink" x="0px" y="0px" width="60px" height="60px"
	 viewBox="0 0 60 60" enable-background="new 0 0 60 60" xml:space="preserve">
<title></title>
<desc></desc>
<g id="slices" transform="translate(173.000000, 138.000000)">
</g>
<path fill="#FFFFFF" d="M57.004,0H2.996C1.337,0,0,1.341,0,2.996v54.008C0,58.662,1.341,60,2.996,60h54.008
	C58.662,60,60,58.658,60,57.004V2.996C60,1.337,58.658,0,57.004,0z M42.846,23.136c0.014,0.299,0.02,0.599,0.02,0.901
	c0,9.203-6.666,19.812-18.856,19.809c-3.744,0-7.228-1.173-10.161-3.187c0.519,0.067,1.046,0.103,1.581,0.103
	c3.106,0.008,5.963-1.113,8.232-2.998c-2.9-0.068-5.348-2.121-6.192-4.933c0.405,0.085,0.82,0.133,1.247,0.135
	c0.605,0.005,1.191-0.077,1.747-0.235c-3.032-0.67-5.317-3.547-5.317-6.978c0-0.03,0-0.06,0-0.089
	c0.894,0.54,1.916,0.869,3.002,0.917c-1.779-1.287-2.949-3.466-2.949-5.922c0-1.297,0.327-2.508,0.897-3.544
	c3.269,4.324,8.153,7.193,13.662,7.55c-0.113-0.515-0.172-1.052-0.172-1.602c0-3.876,2.969-6.969,6.628-6.908
	c1.907,0.032,3.63,0.907,4.839,2.282c1.51-0.29,2.928-0.847,4.209-1.623c-0.496,1.616-1.548,2.964-2.914,3.806
	c1.34-0.149,2.617-0.505,3.807-1.041C45.266,20.961,44.141,22.171,42.846,23.136z"/>
</svg>
