<?xml version="1.0" encoding="utf-8"?>
<!-- Generator: Adobe Illustrator 16.0.0, SVG Export Plug-In . SVG Version: 6.00 Build 0)  -->
<!DOCTYPE svg PUBLIC "-//W3C//DTD SVG 1.1//EN" "http://www.w3.org/Graphics/SVG/1.1/DTD/svg11.dtd">
<svg version="1.1" id="Layer_1" xmlns="http://www.w3.org/2000/svg" xmlns:xlink="http://www.w3.org/1999/xlink" x="0px" y="0px"
	 width="460.632px" height="460.385px" viewBox="0 0 460.632 460.385" enable-background="new 0 0 460.632 460.385"
	 xml:space="preserve">
<g id="IBsFDb_1_" opacity="0.95">
	<g>
		<path fill-rule="evenodd" clip-rule="evenodd" fill="#FFFFFF" d="M-0.408,232.088C0.083,104.747,103.222,1.787,230.091,1.991
			c127.07,0.204,230.633,103.909,230.133,230.447c-0.502,127.552-104.061,230.705-230.989,230.088
			C102.224,461.91-0.895,358.434-0.408,232.088z M229.614,181.895c-1.564-2.075-2.515-3.7-3.801-4.989
			c-23.066-23.12-46.163-46.209-69.275-69.283c-8.107-8.093-15.602-8.05-23.761,0.087c-9.202,9.178-18.39,18.371-27.565,27.576
			c-8.108,8.134-8.081,15.551,0.105,23.748c14.365,14.383,28.734,28.764,43.138,43.108c10.012,9.971,20.085,19.881,30.319,30.004
			c-1.667,1.761-2.879,3.102-4.155,4.379c-23.323,23.335-46.671,46.646-69.973,70.002c-7.324,7.342-7.366,14.91-0.096,22.27
			c9.719,9.839,19.498,19.62,29.344,29.331c6.861,6.767,14.775,6.767,21.601-0.005c13.958-13.849,27.835-27.777,41.732-41.688
			c10.83-10.84,21.639-21.701,33.502-33.603c1.205,1.784,2.025,3.53,3.308,4.817c23.167,23.255,46.381,46.463,69.604,69.661
			c7.896,7.887,15.487,7.865,23.439-0.048c9.33-9.285,18.645-18.587,27.93-27.918c7.867-7.905,7.825-15.475-0.124-23.438
			c-14.48-14.504-28.967-29.003-43.493-43.46c-10.01-9.962-20.092-19.851-30.589-30.213c1.973-1.711,3.435-2.833,4.729-4.125
			c23.35-23.309,46.699-46.618,70.001-69.974c7.097-7.112,7.128-14.863,0.133-21.937c-9.373-9.478-18.81-18.894-28.263-28.292
			c-8.5-8.451-15.665-8.462-24.058-0.077c-18.624,18.608-37.242,37.223-55.838,55.859
			C241.867,169.342,236.31,175.077,229.614,181.895z"/>
	</g>
</g>
</svg>
