<?xml version="1.0" encoding="utf-8"?>
<!-- Generator: Adobe Illustrator 16.0.0, SVG Export Plug-In . SVG Version: 6.00 Build 0)  -->
<!DOCTYPE svg PUBLIC "-//W3C//DTD SVG 1.1//EN" "http://www.w3.org/Graphics/SVG/1.1/DTD/svg11.dtd">
<svg version="1.1" id="Layer_1" xmlns="http://www.w3.org/2000/svg" xmlns:xlink="http://www.w3.org/1999/xlink" x="0px" y="0px"
	 width="324.428px" height="138.736px" viewBox="0 0 324.428 138.736" enable-background="new 0 0 324.428 138.736"
	 xml:space="preserve">
<path fill="#039388" d="M268.178,0c0,34.449,0,68.547-64.591,68.547c0-21.574,51.673-16.412,51.673-43.412h-4.306
	c0,17-30.144,8.963-51.673,30.493C199.281,12.567,238.035,30.143,268.178,0"/>
<path fill="#1D184B" d="M0,127.551c0-1.956,0.668-3.704,2.006-5.247c1.337-1.543,2.675-2.599,4.014-3.164l2.083-0.849
	c-0.361-0.051-0.798-0.153-1.312-0.309c-0.514-0.154-1.195-0.668-2.045-1.543c-0.848-0.874-1.272-1.954-1.272-3.24
	c0-1.594,1.337-4.5,4.013-8.719c-3.962-2.623-5.942-6.634-5.942-12.036c0-5.092,1.71-9,5.131-11.727
	c3.421-2.726,7.883-4.089,13.388-4.089c3.444,0,6.479,0.617,9.103,1.851l13.271-0.308v6.173l-6.326,1.08
	c0,0.051,0.128,0.397,0.385,1.041c0.257,0.643,0.476,1.401,0.656,2.276c0.179,0.875,0.27,1.801,0.27,2.776
	c0,5.351-1.672,9.324-5.016,11.92c-3.343,2.599-7.843,3.897-13.5,3.897c-0.619,0-1.223-0.026-1.814-0.077
	c-0.592-0.052-1.079-0.116-1.466-0.193c-0.386-0.077-0.604-0.116-0.656-0.116l-0.309,5.17h11.419c4.938,0,8.744,1.029,11.419,3.086
	c2.674,2.059,4.012,5.016,4.012,8.873c0,4.424-1.812,7.973-5.438,10.646s-9.015,4.012-16.164,4.012
	c-6.481,0-11.419-0.848-14.813-2.546C1.697,134.493,0,131.613,0,127.551 M22.992,120.605h-8.101
	c-0.259,0.104-0.593,0.283-1.003,0.54c-0.412,0.257-0.965,0.823-1.658,1.698c-0.695,0.874-1.042,1.799-1.042,2.777
	c0,1.852,0.758,3.086,2.275,3.703s3.974,0.926,7.368,0.926c3.497,0,6.019-0.412,7.562-1.234c1.543-0.823,2.313-2.16,2.313-4.012
	c0-1.647-0.604-2.791-1.812-3.434C27.687,120.927,25.718,120.605,22.992,120.605 M19.675,84.576c-4.373,0-6.559,2.442-6.559,7.328
	c0,5.146,2.057,7.717,6.173,7.717c2.365,0,4.05-0.617,5.054-1.853c1.003-1.235,1.505-3.188,1.505-5.864
	C25.848,87.019,23.789,84.576,19.675,84.576"/>
<path fill="#1D184B" d="M84.638,100.547l-25.615,0.23c0.205,3.19,1.146,5.658,2.817,7.406c1.67,1.749,3.818,2.623,6.442,2.623
	c1.901,0,3.935-0.295,6.095-0.886s3.831-1.197,5.014-1.814l1.854-0.926l3.316,6.173c-0.565,0.463-1.362,1.055-2.391,1.775
	c-1.031,0.72-3.087,1.685-6.173,2.892c-3.086,1.208-6.096,1.813-9.027,1.813c-6.533,0-11.509-1.813-14.929-5.439
	c-3.421-3.626-5.131-8.757-5.131-15.391c0-6.842,1.824-12.281,5.478-16.319c3.652-4.037,8.692-6.056,15.122-6.056
	c5.658,0,10.003,1.619,13.04,4.859c3.034,3.241,4.551,7.666,4.551,13.271L84.638,100.547z M66.739,85.656
	c-2.11,0-3.819,0.721-5.132,2.159c-1.311,1.441-2.122,3.369-2.431,5.786h13.888C73.064,88.305,70.956,85.656,66.739,85.656"/>
<path fill="#1D184B" d="M89.883,78.018l15.972-0.617l0.693,5.322c0.411-0.463,0.978-1.027,1.697-1.697
	c0.72-0.668,2.02-1.568,3.897-2.699c1.876-1.131,3.587-1.698,5.13-1.698c1.234,0,2.431,0.117,3.588,0.349
	c1.157,0.23,2.018,0.476,2.586,0.731l0.771,0.31L123.6,92.676h-6.713l-1.157-6.557c-1.338,0-2.7,0.359-4.088,1.08
	c-1.39,0.72-2.445,1.439-3.164,2.16l-1.08,1.08v20.521l7.329,1.93v6.172H89.883v-6.172l6.174-1.93V85.732l-6.174-1.543V78.018z"/>
<path fill="#1D184B" d="M193.809,90.516v20.445l5.246,1.93v6.172h-20.677v-6.172l4.089-1.93V92.83c0-2.16-0.347-3.753-1.042-4.783
	c-0.694-1.027-1.839-1.543-3.432-1.543c-1.494,0-2.946,0.335-4.36,1.003c-1.415,0.669-2.457,1.338-3.125,2.007l-1.08,1.002v20.445
	l4.012,1.93v6.172h-19.442v-6.172l4.012-1.93V92.83c0-2.21-0.335-3.819-1.003-4.822c-0.669-1.003-1.801-1.504-3.394-1.504
	c-1.492,0-2.959,0.335-4.398,1.003c-1.441,0.669-2.521,1.338-3.241,2.007l-1.003,1.002v20.445l4.09,1.93v6.172h-21.372v-6.172
	l5.941-1.93V85.656l-5.864-1.467v-6.172l15.895-0.617l0.54,5.478c0.513-0.464,1.208-1.042,2.083-1.735
	c0.874-0.695,2.494-1.621,4.86-2.777c2.365-1.158,4.552-1.737,6.559-1.737c5.092,0,8.589,2.212,10.493,6.636
	c0.771-0.771,1.671-1.568,2.699-2.393c1.028-0.822,2.648-1.735,4.861-2.738c2.211-1.003,4.346-1.505,6.404-1.505
	c3.856,0,6.762,1.209,8.718,3.626C192.831,82.673,193.809,86.093,193.809,90.516"/>
<polygon fill="#1D184B" points="203.452,78.018 220.966,77.4 220.966,110.961 226.367,112.891 226.367,119.062 203.452,119.062 
	203.452,112.891 209.625,110.961 209.625,85.732 203.452,84.189 "/>
<path fill="#1D184B" d="M231.072,78.018l15.971-0.617l0.54,5.322c0.564-0.463,1.311-1.015,2.236-1.658
	c0.928-0.643,2.637-1.517,5.132-2.623c2.493-1.105,4.77-1.658,6.827-1.658c3.705,0,6.546,1.222,8.525,3.664
	c1.98,2.443,2.971,5.8,2.971,10.068v20.445c0.668,0.207,1.62,0.54,2.855,1.004c1.234,0.463,2.083,0.771,2.546,0.926v6.172h-20.832
	v-6.172l4.089-1.93V92.29c0-1.799-0.475-3.279-1.426-4.437c-0.954-1.156-2.226-1.734-3.82-1.734c-1.439,0-2.843,0.373-4.205,1.117
	c-1.362,0.746-2.38,1.479-3.048,2.199l-1.003,1.08v20.445l4.014,1.93v6.172h-21.372v-6.172l5.94-1.93V85.732l-5.94-1.543V78.018z"/>
<path fill="#1D184B" d="M324.428,118.523l-15.276,0.539l-1.389-5.015c-0.463,0.412-1.08,0.938-1.852,1.581
	c-0.771,0.645-2.251,1.505-4.437,2.585c-2.187,1.08-4.257,1.621-6.211,1.621c-3.755,0-6.688-1.054-8.796-3.164
	c-2.109-2.108-3.163-5.092-3.163-8.95c0-8.486,6.173-12.73,18.517-12.73h5.401v-4.242c0-3.858-1.98-5.787-5.941-5.787
	c-1.184,0-2.342,0.104-3.472,0.309c-1.132,0.207-1.98,0.412-2.546,0.617l-0.771,0.232l-1.157,5.014h-6.944l-0.54-11.419
	c6.224-2.056,11.805-3.086,16.743-3.086c5.863,0,10.003,1.146,12.421,3.435c2.417,2.289,3.627,6.236,3.627,11.842v19.057
	l5.786,1.391V118.523z M294.415,106.564c0,3.086,1.517,4.629,4.552,4.629c1.234,0,2.533-0.373,3.896-1.119
	c1.362-0.744,2.431-1.504,3.201-2.276l1.158-1.08v-5.169h-4.397c-2.984,0-5.131,0.398-6.442,1.196S294.415,104.816,294.415,106.564"
	/>
</svg>
